<?xml version="1.0" standalone="no"?>
<!DOCTYPE svg PUBLIC "-//W3C//DTD SVG 20010904//EN"
 "http://www.w3.org/TR/2001/REC-SVG-20010904/DTD/svg10.dtd">
<svg version="1.0" xmlns="http://www.w3.org/2000/svg"
 width="700.000000pt" height="700.000000pt" viewBox="0 0 700.000000 700.000000"
 preserveAspectRatio="xMidYMid meet">
<metadata>
Created by potrace 1.14, written by Peter Selinger 2001-2017
</metadata>
<g transform="translate(0.000000,700.000000) scale(0.100000,-0.100000)"
fill="#000000" stroke="none">
<path d="M3249 5963 c-3 -149 0 -4865 3 -4869 3 -2 212 -5 464 -5 l459 0 5 23
c3 13 5 454 5 981 l-1 957 26 0 c14 1 146 1 295 2 l269 1 22 -34 c12 -19 120
-212 239 -429 120 -217 226 -408 235 -425 9 -16 39 -70 66 -120 27 -49 54 -99
61 -110 6 -11 19 -33 27 -50 8 -16 34 -64 58 -107 24 -42 119 -214 212 -382
l169 -306 341 0 c638 -1 729 -1 732 2 1 2 -185 314 -413 693 -229 380 -424
704 -433 721 -10 17 -37 62 -60 100 -24 38 -50 83 -60 99 -9 17 -69 116 -132
220 -63 105 -122 204 -132 220 -9 17 -23 40 -32 53 -16 22 -16 22 42 48 331
145 556 306 701 505 78 106 164 288 190 404 33 147 40 231 38 415 -1 107 -5
211 -9 230 -3 19 -11 62 -17 95 -15 82 -72 253 -110 328 -102 202 -285 390
-483 496 -33 17 -64 35 -70 40 -15 11 -176 75 -256 101 -145 47 -372 91 -541
105 -41 4 -85 9 -99 12 -14 3 -427 8 -917 10 l-893 5 -1 -29z m1691 -667 c14
-3 43 -7 65 -10 22 -2 72 -12 110 -20 381 -87 557 -315 555 -721 0 -124 -2
-146 -25 -255 -68 -333 -311 -521 -715 -556 -97 -8 -714 -12 -734 -4 -10 4
-12 163 -12 793 l0 787 365 -4 c201 -2 377 -7 391 -10z"/>
<path d="M1357 4524 c-1 -1 -42 -4 -92 -8 -246 -16 -495 -66 -755 -151 -77
-26 -156 -53 -175 -61 l-34 -14 65 -192 c36 -106 66 -194 68 -196 2 -1 68 17
147 42 209 64 330 92 554 126 99 15 399 6 480 -15 272 -69 407 -232 440 -530
8 -77 8 -385 0 -393 -3 -4 -162 -7 -353 -8 -343 -1 -464 -7 -597 -29 -396 -64
-674 -208 -852 -438 -103 -133 -173 -321 -189 -502 -30 -361 67 -658 283 -866
144 -140 324 -222 583 -267 56 -10 331 -8 387 2 18 4 46 8 61 10 167 25 387
127 522 241 70 60 163 159 192 207 13 21 25 38 29 38 3 0 13 -24 23 -52 60
-171 171 -305 306 -369 75 -36 205 -75 269 -81 l34 -3 63 187 62 187 -46 17
c-129 50 -206 163 -227 334 -4 30 -7 444 -8 920 0 476 -4 899 -9 940 -30 268
-110 458 -257 614 -172 181 -422 281 -756 302 -92 6 -215 10 -218 8z m704
-1823 c0 -36 0 -216 0 -399 l0 -333 -32 -57 c-73 -129 -203 -278 -301 -345
-154 -104 -304 -146 -506 -142 -202 3 -326 48 -433 154 -110 110 -161 257
-161 466 0 221 50 356 181 485 78 78 177 136 297 174 83 27 175 44 284 52 41
4 76 7 77 8 1 1 135 2 298 2 l295 1 1 -66z"/>
</g>
</svg>
